PathFileType	4	(X/Y/Z)	c:\Git\powerlifing_model_clean\simulations\HC835B\Session1\HC835B_OGR_0008\marker_experimental.trc
DataRate	CameraRate	NumFrames	NumMarkers	Units	OrigDataRate	OrigDataStartFrame	OrigNumFrames
240.000000	240.000000	4	38	mm	240.000000	27	217
Frame#	Time	RPSI			LPSI			RASI			LASI			RTH1			RTH2			RTH3			RTH4			RSK1			RSK2			RSK3			RSK4			RCAL1			RCAL2			RCAL3			RST			RPT			RTN			RFMB			RSMB			RVMB			RFMH			RSMH			RVMH			RPM			LTH1			LTH2			LTH3			LTH4			LSK1			LSK2			LSK3			LSK4			LCAL1			LCAL2			LCAL3			LFMH			LVMH			
		X1	Y1	Z1	X2	Y2	Z2	X3	Y3	Z3	X4	Y4	Z4	X5	Y5	Z5	X6	Y6	Z6	X7	Y7	Z7	X8	Y8	Z8	X9	Y9	Z9	X10	Y10	Z10	X11	Y11	Z11	X12	Y12	Z12	X13	Y13	Z13	X14	Y14	Z14	X15	Y15	Z15	X16	Y16	Z16	X17	Y17	Z17	X18	Y18	Z18	X19	Y19	Z19	X20	Y20	Z20	X21	Y21	Z21	X22	Y22	Z22	X23	Y23	Z23	X24	Y24	Z24	X25	Y25	Z25	X26	Y26	Z26	X27	Y27	Z27	X28	Y28	Z28	X29	Y29	Z29	X30	Y30	Z30	X31	Y31	Z31	X32	Y32	Z32	X33	Y33	Z33	X34	Y34	Z34	X35	Y35	Z35	X36	Y36	Z36	X37	Y37	Z37	X38	Y38	Z38	

28	0.1125	469.483856201172	1112.201782226563	-116.0427856445313	360.4204101562501	1106.853881835938	-122.2626495361328	532.4884033203126	1061.644775390625	-326.9056396484376	298.0524291992188	1047.69384765625	-323.6336975097657	598.1293945312501	792.5645141601565	-302.8128051757813	592.7541503906251	795.089294433594	-363.4291076660157	579.4149780273439	720.3955688476564	-343.1751708984376	563.7161254882814	723.7981567382814	-399.2742004394532	496.5425720214845	291.4955749511719	-300.8226013183594	493.8577880859376	271.6838073730469	-359.2532348632813	485.8746337890626	234.6333160400391	-311.3860778808594	470.6810302734376	218.2559661865235	-367.1264953613282	408.6567993164064	95.31606292724611	-236.381820678711	378.0243530273438	57.31253814697267	-244.9006042480469	442.0465698242189	59.0895118713379	-236.9831085205079	368.1566162109376	69.7630081176758	-314.3582153320313	468.6139221191407	68.77114868164064	-295.8318786621094	385.1726989746095	87.83496093750001	-370.0867919921876	391.3687744140626	72.12529754638673	-402.2645874023439	439.8860473632814	95.38114166259767	-408.5158996582032	482.3986206054689	43.45468521118165	-337.0504760742188	393.2003784179689	47.00835800170899	-457.571014404297	448.4814758300782	59.32883453369142	-467.530975341797	506.4536132812501	39.20237731933594	-413.5212402343751	441.6235961914064	43.21156692504884	-526.5119018554689	212.2926330566407	767.7192382812501	-201.8931732177735	212.0454254150391	752.7266845703126	-260.9646301269532	210.4425048828126	683.6488647460939	-218.0159454345704	223.1163330078126	668.6567382812501	-275.7028198242188	280.7194824218751	581.1724243164064	81.96423339843751	267.5969543457032	532.9444580078126	100.4103469848633	285.2266235351563	563.6260986328126	135.2574310302735	287.0016174316407	510.2022094726564	149.9403076171875	370.1982421875001	610.0552368164064	256.6105957031251	350.3627929687501	621.0797119140626	298.8283386230469	406.1416015625001	604.8857421875001	287.7486877441407	370.0750427246094	389.6766357421876	320.6701965332032	284.1106872558594	450.5958557128907	361.9938354492188	
29	0.1166666666666667	468.8084411621095	1110.79833984375	-126.4323883056641	360.7296447753907	1104.121215820313	-134.5294036865235	533.4424438476564	1058.431640625	-338.7052917480469	299.5085754394532	1042.102783203125	-334.5542602539063	598.1320800781251	790.9426879882815	-314.7876586914063	592.7763061523439	793.9898071289065	-375.3378295898438	578.7597045898439	719.4413452148439	-355.5963745117188	562.8753662109376	723.3152465820314	-411.648895263672	495.8237304687501	292.4502868652344	-305.8807067871094	493.2622375488282	270.9928588867188	-363.7275695800782	485.2944641113282	235.2601623535157	-314.9226989746094	470.5359497070314	217.2772979736329	-370.2549133300782	408.997772216797	95.54616546630861	-236.4684295654297	378.3084106445313	57.78678512573244	-244.8735809326172	442.2798156738282	59.31039810180665	-236.9942626953126	368.4584960937501	70.05319213867189	-314.4015808105469	468.8147277832032	68.81734466552736	-295.8808898925782	385.2200317382814	87.65030670166017	-370.3879089355469	391.618133544922	71.84609985351564	-402.347137451172	440.1546630859376	95.09453582763673	-408.5991821289064	482.8042297363282	43.28926849365235	-337.0355529785157	393.6150817871095	46.93591690063477	-457.6808166503907	448.821258544922	59.05625534057619	-467.6316833496095	506.4695739746095	38.9824447631836	-413.5239868164064	441.8777770996095	42.29175186157227	-526.7427368164064	211.8056793212891	765.1841430664064	-218.6307830810547	211.6733093261719	750.9326782226564	-277.8784484863282	209.5619049072266	681.3524169921876	-236.1003112792969	222.3699798583985	667.2061157226564	-293.9454345703126	279.2924194335938	580.1848754882814	60.02673339843751	266.4561157226563	531.9855957031251	78.92535400390626	284.0056457519532	563.3000488281251	113.57861328125	285.8839111328126	509.8247680664064	128.8123321533203	368.7009277343751	610.8647460937501	235.1835632324219	348.5679321289063	621.9030761718751	277.3185119628907	404.5968017578126	606.0678710937501	266.4467163085938	369.7278137207032	390.5788574218751	299.8145446777344	283.0432739257813	451.1505737304689	340.7107238769532	
30	0.1208333333333333	468.987518310547	1109.910766601563	-137.6899719238282	360.6848144531251	1102.571533203125	-146.0643615722657	535.5100708007814	1056.06494140625	-350.8372497558594	301.1875610351563	1036.685180664063	-345.7118225097657	598.0997314453126	789.5137939453127	-326.4306030273438	592.3107299804689	793.2637329101565	-386.974334716797	578.5350952148439	718.3995971679689	-367.8189392089844	562.4946899414064	722.7803955078126	-423.7973022460939	495.5038452148439	293.0768737792969	-310.7404479980469	492.7409973144532	270.0357360839844	-368.0147094726563	485.065399169922	235.6871643066407	-318.2691345214844	470.4031372070314	216.0191040039063	-373.0654602050782	411.0079956054689	93.4933319091797	-240.0323486328126	378.5200195312501	58.14970779418947	-244.9990692138672	442.4913940429689	59.53944015502931	-237.0785675048829	368.6853332519532	70.29911041259767	-314.5565185546876	468.9892883300782	68.78359985351564	-295.9830627441407	385.2926635742189	87.52478027343751	-370.6969299316407	391.8041381835939	71.62753295898439	-402.5086975097657	440.5047302246095	94.75622558593751	-408.7286987304689	483.952606201172	43.56179809570313	-337.0330505371094	393.9456176757814	46.83043289184571	-457.790008544922	449.1028442382814	58.572811126709	-467.7854614257814	507.5760498046876	38.69376373291016	-413.5613708496095	442.1694335937501	41.5267448425293	-526.9226684570314	211.5648651123047	762.8915405273439	-235.5102844238282	211.4234313964844	749.5087890625001	-294.9747619628907	208.7371063232422	679.3347778320314	-254.1179809570313	221.7897644042969	665.9810180664064	-312.0889587402344	277.9548950195313	579.1260375976564	38.07113265991212	265.2056884765626	531.2272949218751	57.51773071289064	282.8067626953126	562.5715942382814	91.65472412109376	284.9706420898438	509.4586791992189	107.2721633911133	367.1243591308594	611.2890014648439	213.8270416259766	346.7438964843751	622.1708984375001	255.8313446044922	403.880096435547	606.8876953125001	244.9898834228516	369.8023071289063	391.1193237304689	278.3627319335938	282.1453247070313	450.7853088378907	319.1047973632813	
31	0.125	469.280242919922	1108.979370117188	-149.3173828125	360.7166442871094	1101.27880859375	-157.5626068115235	538.4011840820314	1053.111328125	-362.5565795898438	302.6751708984376	1031.082275390625	-357.0401000976563	598.1311035156251	788.026306152344	-337.6948852539063	591.8793945312501	792.387878417969	-398.0942382812501	578.6045532226564	717.2205810546876	-379.5248107910157	562.0287475585939	722.0739746093751	-435.308807373047	495.4029235839845	292.9904785156251	-315.2041015625001	492.5776367187501	268.6726684570313	-371.9956665039063	484.9445800781251	235.4248962402344	-321.5000000000001	470.3323974609376	214.548324584961	-375.8736572265626	409.7833862304689	95.18218994140626	-239.0794219970704	378.3713989257813	58.3746681213379	-245.1805725097657	442.3460998535157	59.89540100097658	-237.282211303711	368.4498901367188	70.17352294921876	-314.7932434082032	468.8255615234376	69.03391265869142	-296.2232971191407	384.8733215332032	87.20001220703126	-371.0750122070313	391.5583801269532	71.38515472412111	-402.7963867187501	440.271942138672	94.57234954833986	-408.9679260253907	483.8088684082032	43.66110992431641	-337.1360473632813	393.8917846679689	46.57915878295899	-457.963348388672	448.962615966797	58.29610443115236	-468.0109863281251	507.3562927246095	38.63586425781251	-413.654510498047	442.2110290527345	40.91484451293946	-527.2009887695314	211.4317932128907	760.6808471679689	-252.2485809326172	211.1950225830079	748.4158935546876	-311.8906250000001	208.1573028564454	677.5204467773439	-272.1292114257813	221.3220825195313	664.9891967773439	-330.4409790039063	276.5249023437501	577.9864501953126	16.05821037292481	264.1915588378907	530.0386352539064	35.64395904541016	281.5795288085938	561.8357543945314	69.74587249755861	283.9568481445313	508.5381774902345	85.62415313720705	365.4830017089844	611.2197265625001	192.5327453613282	344.8247070312501	621.9142456054689	234.4798126220704	401.0464782714845	606.8712768554689	224.1413574218751	369.8083801269532	390.6910400390626	256.6751403808594	281.8146972656251	449.8642883300782	297.0033874511719	
